<?xml version="1.0"?>
<svg xmlns="http://www.w3.org/2000/svg" viewBox="0 0 50 50" width="100px" height="100px">
    <linearGradient id="g0">
        <stop offset="0.2" stop-color="#7e7e7e"/>
        <stop offset="0.8" stop-color="#0E4D92"/>
    </linearGradient>
    <path fill="url(#g0)" d="M 29.044922 1 C 28.923297 0.99425 28.800594 1.0122344 28.683594 1.0527344 L 8.8515625 7.6621094 C 8.4675625 7.7901094 8.1979219 8.1360625 8.1699219 8.5390625 C 8.1409219 8.9430625 8.3587031 9.3248594 8.7207031 9.5058594 L 24.521484 17.40625 C 24.661484 17.47625 24.81575 17.511719 24.96875 17.511719 C 25.08775 17.511719 25.206312 17.489266 25.320312 17.447266 L 45.353516 9.9355469 C 45.733516 9.7925469 45.989953 9.4323906 46.001953 9.0253906 C 46.011953 8.6193906 45.773391 8.2469844 45.400391 8.0839844 L 29.400391 1.0839844 C 29.286891 1.0344844 29.166547 1.00575 29.044922 1 z M 4.9550781 10 C 4.7875781 10.007375 4.6221094 10.056938 4.4746094 10.148438 C 4.1796094 10.331437 4 10.653 4 11 L 4 41 C 4 41.397 4.2346094 41.757016 4.5996094 41.916016 L 20.599609 48.916016 C 20.727609 48.973016 20.864 49 21 49 C 21.191 49 21.381875 48.945891 21.546875 48.837891 C 21.829875 48.652891 22 48.338 22 48 L 22 19 C 22 18.621 21.785266 18.275469 21.447266 18.105469 L 5.4472656 10.105469 C 5.2917656 10.028469 5.1225781 9.992625 4.9550781 10 z M 44.884766 12.277344 C 44.804875 12.286547 44.725687 12.304984 44.648438 12.333984 L 27.648438 18.708984 C 27.259438 18.855984 27 19.229484 27 19.646484 L 27 34 C 27 34.424 27.268969 34.802359 27.667969 34.943359 L 44.667969 40.943359 C 44.775969 40.981359 44.888 41 45 41 C 45.204 41 45.405172 40.938406 45.576172 40.816406 C 45.842172 40.629406 46 40.324 46 40 L 46 13.271484 C 46 12.943484 45.838359 12.636266 45.568359 12.447266 C 45.367359 12.308516 45.124437 12.249734 44.884766 12.277344 z"/>
</svg>
